<?xml version="1.0" encoding="UTF-8"?>
<svg id="OBJECTS" xmlns="http://www.w3.org/2000/svg" xmlns:xlink="http://www.w3.org/1999/xlink" viewBox="0 0 32 32">
  <defs>
    <style>
      .cls-1 {
        fill: #3a8ea5;
      }

      .cls-1, .cls-2, .cls-3, .cls-4 {
        stroke-width: 0px;
      }

      .cls-1, .cls-4 {
        fill-rule: evenodd;
      }

      .cls-2 {
        clip-rule: evenodd;
        fill: none;
      }

      .cls-3, .cls-4 {
        fill: #101f28;
      }

      .cls-5 {
        clip-path: url(#clippath);
      }
    </style>
    <clipPath id="clippath">
      <path class="cls-2" d="m21.32,4.81c-1.66-.79-3.48-1.2-5.32-1.2-6.84,0-12.39,5.55-12.39,12.39s5.55,12.39,12.39,12.39,12.39-5.55,12.39-12.39c0-2.79-.94-5.5-2.68-7.69l-3.67,2.91c1.08,1.36,1.66,3.05,1.66,4.78,0,4.26-3.45,7.71-7.71,7.71s-7.71-3.45-7.71-7.71,3.45-7.71,7.71-7.71c1.15,0,2.28.25,3.31.75l2.01-4.23Z"/>
    </clipPath>
  </defs>
  <path class="cls-1" d="m21.32,4.81c-1.66-.79-3.48-1.2-5.32-1.2-6.84,0-12.39,5.55-12.39,12.39s5.55,12.39,12.39,12.39,12.39-5.55,12.39-12.39c0-2.79-.94-5.5-2.68-7.69l-3.67,2.91c1.08,1.36,1.66,3.05,1.66,4.78,0,4.26-3.45,7.71-7.71,7.71s-7.71-3.45-7.71-7.71,3.45-7.71,7.71-7.71c1.15,0,2.28.25,3.31.75l2.01-4.23Z"/>
  <g class="cls-5">
    <path class="cls-4" d="m9.63,11.69s-4.92,6.17.81,16.31l-7.33-4.11L.38,11.98,4.06,1.07l19.35,1.96.78,6.62-14.56,2.05Z"/>
  </g>
  <circle class="cls-3" cx="20.46" cy="6.99" r="2.35"/>
  <path class="cls-4" d="m17.16,20.95s4.45-3.51,7.8-6.15c.96-.76,1.59-1.87,1.73-3.09.14-1.22-.2-2.45-.96-3.41h0s-4.45,3.51-7.8,6.15c-.96.76-1.59,1.87-1.73,3.09-.14,1.22.2,2.45.96,3.41h0Z"/>
</svg>